<svg xmlns="http://www.w3.org/2000/svg" viewBox="0 0 203.556 203.556" style="enable-background:new 0 0 203.556 203.556" xml:space="preserve"><g style="fill:#464646;fill-opacity:1"><path d="m201.359 137.3-43.831-43.831 11.453-11.452a7.5 7.5 0 0 0 0-10.608l-36.835-36.834a7.501 7.501 0 0 0-10.606 0l-11.452 11.452L66.253 2.196a7.501 7.501 0 0 0-10.606 0L18.813 39.03a7.5 7.5 0 0 0 0 10.607l43.831 43.831-11.453 11.452a7.5 7.5 0 0 0 0 10.608l36.837 36.836a7.477 7.477 0 0 0 5.303 2.196 7.477 7.477 0 0 0 5.303-2.196l11.453-11.453 43.83 43.83a7.479 7.479 0 0 0 5.303 2.196 7.477 7.477 0 0 0 5.303-2.196l36.835-36.834a7.5 7.5 0 0 0 .001-10.607zM34.723 44.334 60.95 18.107l38.53 38.526-17.166 17.166-9.063 9.063-38.528-38.528zm58.608 92.12-26.23-26.229 11.448-11.447.005-.005L90.997 86.33l35.845-35.844 26.229 26.228-11.446 11.446-.007.007-18.417 18.418-29.87 29.869zm65.89 32.377-38.527-38.526 26.229-26.229 38.527 38.527-26.229 26.228zM72.344 188.555c-15.317.001-29.717-5.964-40.548-16.795C20.965 160.929 15 146.528 15 131.211a7.5 7.5 0 0 0-7.5-7.5 7.5 7.5 0 0 0-7.5 7.5c0 19.324 7.526 37.491 21.189 51.155 13.663 13.664 31.829 21.189 51.152 21.189h.004a7.5 7.5 0 0 0 7.499-7.5 7.499 7.499 0 0 0-7.5-7.5z" style="fill:#464646;fill-opacity:1"/><path d="M69.346 174.133a7.5 7.5 0 0 0 7.5-7.5 7.5 7.5 0 0 0-7.5-7.5c-6.658 0-12.916-2.593-17.624-7.3-4.707-4.707-7.299-10.965-7.299-17.622a7.5 7.5 0 0 0-15 0c-.001 10.663 4.152 20.688 11.693 28.229 7.54 7.541 17.566 11.693 28.23 11.693z" style="fill:#464646;fill-opacity:1"/></g></svg>